<svg id="Iconly-Light-Outline-Calendar" xmlns="http://www.w3.org/2000/svg" width="13" height="14.333" viewBox="0 0 13 14.333">
  <g id="Calendar" transform="translate(0 0)">
    <path id="Combined_Shape" data-name="Combined Shape" d="M3.68,14.333A3.4,3.4,0,0,1,0,10.682V4.649A3.332,3.332,0,0,1,3.31,1.066V.5a.5.5,0,0,1,1,0v.553H8.7V.5a.5.5,0,1,1,1,0v.566a3.588,3.588,0,0,1,2.354.973A3.586,3.586,0,0,1,13,4.651v6.082a3.379,3.379,0,0,1-3.681,3.6ZM1,10.682a2.4,2.4,0,0,0,2.68,2.652H9.319A2.383,2.383,0,0,0,12,10.732v-4.8H1ZM12,4.936V4.649a2.575,2.575,0,0,0-.658-1.9A2.578,2.578,0,0,0,9.7,2.069v.625a.5.5,0,1,1-1,0V2.053H4.31v.641a.5.5,0,0,1-1,0V2.068A2.324,2.324,0,0,0,1,4.649v.287ZM8.965,10.631a.5.5,0,0,1,.5-.5h.006a.5.5,0,1,1-.5.5Zm-2.958,0a.5.5,0,0,1,.5-.5h.006a.5.5,0,1,1-.5.5Zm-2.965,0a.5.5,0,0,1,.5-.5h.006a.5.5,0,1,1-.5.5ZM8.965,8.04a.5.5,0,0,1,.5-.5h.006a.5.5,0,1,1-.5.5Zm-2.958,0a.5.5,0,0,1,.5-.5h.006a.5.5,0,1,1-.5.5Zm-2.965,0a.5.5,0,0,1,.5-.5h.006a.5.5,0,1,1-.5.5Z" transform="translate(0 0)" fill="#5a55c9"/>
  </g>
</svg>
