<svg xmlns="http://www.w3.org/2000/svg" width="20.468" height="20.844" viewBox="0 0 20.468 20.844">
  <path id="Path_51627" data-name="Path 51627" d="M13.648,0h-.034a10.226,10.226,0,0,0-8.02,16.6L4.1,20.066a.556.556,0,0,0,.29.732.568.568,0,0,0,.318.039l5.468-.961a9.853,9.853,0,0,0,3.407.592A10.234,10.234,0,0,0,13.648,0ZM10.14,8.187h3.016a.558.558,0,1,1,0,1.117H10.14a.558.558,0,1,1,0-1.117ZM17.065,12.1H10.14a.558.558,0,0,1,0-1.117h6.925a.558.558,0,1,1,0,1.117Z" transform="translate(-3.366)" fill="#fff"/>
</svg>
