<svg xmlns="http://www.w3.org/2000/svg" xmlns:xlink="http://www.w3.org/1999/xlink" width="29.595" height="29.595" viewBox="0 0 29.595 29.595">
  <defs>
    <linearGradient id="linear-gradient" x1="0.5" x2="0.5" y2="1" gradientUnits="objectBoundingBox">
      <stop offset="0" stop-color="#9678f6"/>
      <stop offset="1" stop-color="#d168cd"/>
    </linearGradient>
  </defs>
  <path id="Path_51615" data-name="Path 51615" d="M14.078,15.952H9.6a1.156,1.156,0,0,1,0-2.312h4.046c-.375.457-.639,0,0,0s-.013.92,0,0H20a1.156,1.156,0,0,1,0,2.312H14.078ZM25.261,4.334A14.8,14.8,0,0,0,4.334,25.261a14.8,14.8,0,0,0,18.12,2.2,1.156,1.156,0,1,0-1.2-1.977,12.6,12.6,0,1,1,3.91-3.758,1.156,1.156,0,0,0,1.922,1.285A14.761,14.761,0,0,0,25.261,4.334Zm0,0" transform="translate(0 0)" fill="url(#linear-gradient)"/>
</svg>
