<svg xmlns="http://www.w3.org/2000/svg" xmlns:xlink="http://www.w3.org/1999/xlink" width="110.002" height="109.986" viewBox="0 0 110.002 109.986">
  <defs>
    <filter id="home" x="0" y="0" width="110.002" height="109.986" filterUnits="userSpaceOnUse">
      <feOffset dy="3" input="SourceAlpha"/>
      <feGaussianBlur stdDeviation="15" result="blur"/>
      <feFlood flood-color="#0082b4" flood-opacity="0.31"/>
      <feComposite operator="in" in2="blur"/>
      <feComposite in="SourceGraphic"/>
    </filter>
  </defs>
  <g transform="matrix(1, 0, 0, 1, 0, 0)" filter="url(#home)">
    <path id="home-2" data-name="home" d="M.259,10.317l9-10a1.03,1.03,0,0,1,1.486,0l9,10A1,1,0,0,1,19,11.986H17v7a1,1,0,0,1-1,1H13a1,1,0,0,1-1-1v-4s-3-1-4,0,0,4,0,4a1,1,0,0,1-1,1H4a1,1,0,0,1-1-1v-7H1a1,1,0,0,1-.743-1.669Z" transform="translate(45 42)" fill="#5a55c9"/>
  </g>
</svg>
