<svg xmlns="http://www.w3.org/2000/svg" width="17" height="12" viewBox="0 0 17 12">
  <g id="Polygon_2" data-name="Polygon 2" transform="translate(17 12) rotate(180)" fill="none" stroke-linecap="round">
    <path d="M7.684,1.152a1,1,0,0,1,1.632,0l6.566,9.27A1,1,0,0,1,15.066,12H1.934a1,1,0,0,1-.816-1.578Z" stroke="none"/>
    <path d="M 8.499893188476562 1.730206489562988 L 8.5 1.730055809020996 L 1.93378734588623 10.9999942779541 C 1.933788299560547 10.99999523162842 1.933788299560547 10.99999523162842 1.933788299560547 10.99999523162842 C 1.933788299560547 10.99999523162842 1.933789253234863 10.99999523162842 1.93379020690918 10.99999523162842 L 15.06620979309082 10.99999523162842 C 15.06621074676514 10.99999523162842 15.06619644165039 10.99997520446777 15.0662202835083 11.0000057220459 L 8.499893188476562 1.730206489562988 M 8.499996185302734 0.7300558090209961 C 8.808372497558594 0.7300558090209961 9.11674976348877 0.8707151412963867 9.316020011901855 1.152035713195801 L 15.88224029541016 10.4219856262207 C 16.35133934020996 11.08423519134521 15.87777996063232 11.99999523162842 15.06620979309082 11.99999523162842 L 1.93379020690918 11.99999523162842 C 1.122220039367676 11.99999523162842 0.6486606597900391 11.08423519134521 1.117759704589844 10.4219856262207 L 7.683979988098145 1.152035713195801 C 7.883245468139648 0.8707151412963867 8.191619873046875 0.7300558090209961 8.499996185302734 0.7300558090209961 Z" stroke="none" fill="#9678f6"/>
  </g>
</svg>
