<svg xmlns="http://www.w3.org/2000/svg" width="24.377" height="24.381" viewBox="0 0 24.377 24.381">
  <g id="svgexport-6_1_" data-name="svgexport-6 (1)" transform="translate(-0.004)">
    <g id="Group_40811" data-name="Group 40811" transform="translate(0.004)">
      <g id="Group_40810" data-name="Group 40810">
        <path id="Path_5891" data-name="Path 5891" d="M25.479,6.117l-.365.116-1.943.173-.549.876-.4-.127L20.679,5.762l-.224-.725-.3-.773-.972-.872-1.146-.224-.026.525,1.123,1.1.549.647-.618.323-.5-.148L17.809,5.3l.026-.608-.989-.407L16.517,5.71l-1,.226.1.8,1.3.25.224-1.274,1.072.158.5.292h.8l.547,1.1,1.45,1.471L21.4,9.3l-1.17-.149-2.021,1.021-1.455,1.745-.189.773h-.522l-.973-.449-.945.449.235,1,.411-.474.723-.023-.05.9.6.175.6.672.977-.275,1.116.176,1.3.348.647.076,1.1,1.246L23.9,17.75l-1.37,2.617-1.446.672-.549,1.5-2.092,1.4-.223.806a12.175,12.175,0,0,0,7.263-18.62Z" transform="translate(-3.166 -0.709)" fill="#5a55c9"/>
        <path id="Path_5892" data-name="Path 5892" d="M13.594,20.248,12.706,18.6l.815-1.7-.815-.244-.915-.919-2.027-.455-.673-1.408v.836h-.3L7.048,12.346V10.4L5.767,8.318l-2.033.362H2.364l-.689-.452.879-.7-.877.2A12.174,12.174,0,0,0,12.192,26.068a12.761,12.761,0,0,0,1.53-.106l-.127-1.477s.56-2.193.56-2.268S13.594,20.248,13.594,20.248Z" transform="translate(-0.004 -1.687)" fill="#5a55c9"/>
        <path id="Path_5893" data-name="Path 5893" d="M5.338,3.931l2.165-.3,1-.547,1.123.324,1.794-.1.615-.966.9.147,2.177-.2.6-.661.846-.565,1.2.18.436-.066A12.15,12.15,0,0,0,3.6,4.432H3.6Zm8.174-2.719L14.756.527l.8.462L14.4,1.87l-1.105.111-.5-.323Zm-3.687.1.549.229.719-.229.392.679-1.661.436-.8-.467S9.806,1.457,9.824,1.312Z" transform="translate(-0.808)" fill="#5a55c9"/>
      </g>
    </g>
  </g>
</svg>
