<svg xmlns="http://www.w3.org/2000/svg" xmlns:xlink="http://www.w3.org/1999/xlink" width="110.002" height="109.986" viewBox="0 0 110.002 109.986">
  <defs>
    <filter id="home" x="0" y="0" width="110.002" height="109.986" filterUnits="userSpaceOnUse">
      <feOffset dy="3" input="SourceAlpha"/>
      <feGaussianBlur stdDeviation="15" result="blur"/>
      <feFlood flood-color="#0082b4" flood-opacity="0.31"/>
      <feComposite operator="in" in2="blur"/>
      <feComposite in="SourceGraphic"/>
    </filter>
  </defs><svg xmlns="http://www.w3.org/2000/svg" width="18.76" height="19.25" viewBox="0 0 18.76 19.25">
  <path id="Vector" d="M7.474,0A.688.688,0,0,0,6.82.477l-.756,2.35a7.477,7.477,0,0,0-.912.527l-2.414-.52a.688.688,0,0,0-.74.33L.092,6.462a.688.688,0,0,0,.087.806L1.835,9.1a7.673,7.673,0,0,0,0,1.053L.179,11.982a.688.688,0,0,0-.087.806L2,16.087a.687.687,0,0,0,.74.329l2.414-.52a7.643,7.643,0,0,0,.91.527l.758,2.35a.688.688,0,0,0,.655.477h3.811a.687.687,0,0,0,.654-.477l.755-2.349a7.554,7.554,0,0,0,.914-.529l2.413.521a.688.688,0,0,0,.74-.33l1.906-3.3a.688.688,0,0,0-.087-.806L16.925,10.15a7.672,7.672,0,0,0,0-1.05l1.657-1.832a.688.688,0,0,0,.087-.806l-1.906-3.3a.687.687,0,0,0-.74-.329l-2.413.521a7.636,7.636,0,0,0-.914-.529L11.939.477A.688.688,0,0,0,11.287,0H7.474Zm.5,1.375h2.8l.781,2.43.527.257a6.319,6.319,0,0,1,.748.432l.487.33,2.5-.539,1.4,2.431L15.513,8.61l.041.583a6.3,6.3,0,0,1,0,.864l-.041.583,1.715,1.895-1.4,2.431-2.5-.538-.487.329a6.319,6.319,0,0,1-.748.432l-.527.257-.782,2.43H7.975l-.784-2.431-.525-.256a6.193,6.193,0,0,1-.747-.432l-.485-.329-2.5.538-1.4-2.431L3.246,10.64,3.2,10.057a6.3,6.3,0,0,1,0-.865l.041-.583L1.532,6.715l1.4-2.431,2.5.536.485-.327a6.179,6.179,0,0,1,.747-.432l.525-.256.785-2.431ZM9.38,5.5A4.125,4.125,0,1,0,12.3,6.708,4.125,4.125,0,0,0,9.38,5.5Zm0,1.375a2.75,2.75,0,1,1-1.945.805A2.75,2.75,0,0,1,9.38,6.875Z" transform="translate(0)"/>
</svg>

  <g transform="matrix(1, 0, 0, 1, 0, 0)" filter="url(#home)">
    <path id="home-2" data-name="home" d="M.259,10.317l9-10a1.03,1.03,0,0,1,1.486,0l9,10A1,1,0,0,1,19,11.986H17v7a1,1,0,0,1-1,1H13a1,1,0,0,1-1-1v-4H8v4a1,1,0,0,1-1,1H4a1,1,0,0,1-1-1v-7H1a1,1,0,0,1-.743-1.669Z" transform="translate(45 42)" fill="#5a55c9"/>
  </g>
</svg>
