<svg xmlns="http://www.w3.org/2000/svg" width="19.853" height="15.586" viewBox="0 0 19.853 15.586">
  <g id="Group_2901" data-name="Group 2901" transform="translate(0 0)">
    <g id="Group_2900" data-name="Group 2900" transform="translate(0)">
      <g id="Group_2899" data-name="Group 2899">
        <path id="Path_11451" data-name="Path 11451" d="M16.541,60.2A6.824,6.824,0,0,0,3.117,61.362a3.722,3.722,0,0,0,.62,7.394h3.1V67.516h-3.1a2.481,2.481,0,1,1,0-4.963.62.62,0,0,0,.62-.62,5.583,5.583,0,0,1,11.061-1.086.62.62,0,0,0,.527.5,3.1,3.1,0,0,1-.422,6.172H13.042v1.241h2.481A4.342,4.342,0,0,0,16.541,60.2Z" transform="translate(0 -55.032)" fill="#5a55c9"/>
        <path id="Path_11452" data-name="Path 11452" d="M183.516,249.191l-2.481,2.481.875.875,1.427-1.421v5.949h1.241v-5.949L186,252.547l.875-.875-2.481-2.481A.62.62,0,0,0,183.516,249.191Z" transform="translate(-174.016 -241.49)" fill="#5a55c9"/>
      </g>
    </g>
  </g>
</svg>
